<?xml version="1.0" encoding="utf-8"?>
<!-- Generator: Adobe Illustrator 24.3.0, SVG Export Plug-In . SVG Version: 6.00 Build 0)  -->
<svg version="1.1" id="Calque_1" xmlns="http://www.w3.org/2000/svg" xmlns:xlink="http://www.w3.org/1999/xlink" x="0px" y="0px"
	 viewBox="0 0 1280 1097.1" style="enable-background:new 0 0 1280 1097.1;" xml:space="preserve">
<style type="text/css">
	.st0{fill:#1D1D1B;}
</style>
<path class="st0" d="M1189.6,548.6C1189.6-28.8,640,0,640,0S88.4-26.3,88.4,548.6c0,0-88.4-2.1-88.4,95.4
	C0,741,123.4,802.4,124.4,802.8c0,0,0,0,0,0c104.1,312,405.1,294.3,515.6,294.3c110.8,0,411.7,19.5,514.5-295.8
	c19.4-10,125.5-68.9,125.5-157.4C1280,552.1,1198.9,548.7,1189.6,548.6z M425.9,769.8c-38.9,0-70.5-47.6-70.5-106.3
	c0-58.7,31.6-106.3,70.5-106.3c38.9,0,70.5,47.6,70.5,106.3C496.3,722.2,464.8,769.8,425.9,769.8z M819.9,769.8
	c-38.9,0-70.5-47.6-70.5-106.3c0-58.7,31.5-106.3,70.5-106.3c38.9,0,70.5,47.6,70.5,106.3C890.3,722.2,858.8,769.8,819.9,769.8z"/>
</svg>
