<?xml version="1.0" encoding="utf-8"?>
<!-- Generator: Adobe Illustrator 24.3.0, SVG Export Plug-In . SVG Version: 6.00 Build 0)  -->
<svg version="1.1" id="Calque_1" xmlns="http://www.w3.org/2000/svg" xmlns:xlink="http://www.w3.org/1999/xlink" x="0px" y="0px"
	 viewBox="0 0 1280 720" style="enable-background:new 0 0 1280 720;" xml:space="preserve">
<style type="text/css">
	.st0{fill:#1D1D1B;}
</style>
<path class="st0" d="M935.7,450.3c-1.5,4-3.1,7.9-4.8,11.8L935.7,450.3z"/>
<path class="st0" d="M930.9,462.1c1.7-3.9,3.3-7.9,4.8-11.8L930.9,462.1z"/>
<path class="st0" d="M1211.3,402c-4.5-1.2-9.1-2-13.9-2.4c-11.8-4.9-20.1-16.5-20.1-30s8.3-25.2,20.1-30c4.8-0.5,9.4-1.3,13.9-2.4
	c39.5-10.1,68.7-46,68.7-88.7c0-50.6-41-91.5-91.5-91.5c-12.8,0-24.9,2.6-35.9,7.3h0l0,0l0,0l0,0l-18.8,10.8l0,0l0,0l-198,114.1
	c-6-16.1-13.9-31.6-23.3-46.6c23.7-25.5,38.2-59.5,38.2-97C950.5,66.8,886.7,2.9,808,2.9c0,0-2.7,0.1-7.6,0.2h-0.1
	C760,4.4,575.1,12,520,47.6c-14.7-0.9-29.6-1.4-44.7-1.4C212.8,46.2,0,191,0,369.7s212.8,323.6,475.3,323.6
	c26.5,0,52.5-1.5,77.8-4.3c0,0,0,0,0,0c85.7,26.8,254.9,30.3,254.9,30.3l-0.4-1.8h0.4c78.7,0,142.6-63.8,142.6-142.6
	c0-33.8-11.8-64.8-31.4-89.3c4.4-7.7,8.3-15.5,11.8-23.5l4.8-11.8c-1.5,4-3.1,7.9-4.8,11.8l210.8,107.3l10.8,5.5l0,0
	c11,4.7,23.2,7.3,35.9,7.3c50.6,0,91.5-41,91.5-91.5C1280,448,1250.8,412.1,1211.3,402z M209.7,427.6c-52.6,0-95.2-42.6-95.2-95.2
	c0-52.6,42.6-95.2,95.2-95.2c52.6,0,95.2,42.6,95.2,95.2C304.9,385,262.2,427.6,209.7,427.6z"/>
</svg>
